# xmcd
#
# Track frame offsets:
#	150
#	20395
#	48085
#	61520
#	76353
#	92578
#	125673
#	137958
#	165798
#	181303
#	196170
#	203400
#	219558
#	240900
#	253200
#	260423
#	275033
#	295728
#	314243
#
# Disc length: 4457 seconds
#
# Revision: 3
# Processed by: cddbd v1.5.2PL0 Copyright (c) Steve Scherf et al.
# Submitted via: EasyCDDAExtractor 10.5.1.1
#
DISCID=09116713
DTITLE=Various Artist - Blues Britannia
DYEAR=1993
DGENRE=Blues
TTITLE0=Cliff Aungier - Got To Move - Cliff Aungier/Jerry Donahue/Micky Moody/
TTITLE0=Jerry Conway/Nigel Portman-Smith/Mike Simmonds
TTITLE1=Chris Farlowe - Gamblers Blues - Chris Farlowe/Mo Witham/Tim Hinkley/B
TTITLE1=ig George Webley/The Big Figure
TTITLE2=John B. Spencer - Re-Incarnation Blues - John B. Spencer/Micky Moody/G
TTITLE2=eoff Bradford
TTITLE3=Cliff Aungier - Sandiago Serenade - Cliff Aungier/Jerry Donahue/Geoff 
TTITLE3=Brandford/Danny Thompson/Mike Simmonds
TTITLE4=Richard Newman - Blood Red River - Richard Newman/Jerry Donahue/Dave P
TTITLE4=egg/Gerry Conway
TTITLE5=Cliff Aungier - How Long Blues - Cliff Aungier/Nigel Portman-Smith/Jer
TTITLE5=ry Donahue/Micky Moody/Mike Simmonds/Gerry Conway 
TTITLE6=Peter Green - Born Under A Bad Sign - Peter Green/Ronni Johnson/Paul W
TTITLE6=estwood/Dave Mattacks
TTITLE7=Mickey Moody and John McLaughlin - Bluesmonia - Jon McLaughlin/Micky M
TTITLE7=oody/Danny Thompson/Clive Bunker/Mike Simmonds
TTITLE8=Rod Dawes - Guilty - Rod Dawes/Cliff Aungier/Nigel Portman-Smith
TTITLE9=Snowy White - Out Of Order - Snowy White/Kuma Harada/Jeff Allan/Graham
TTITLE9=Bell 
TTITLE10=Richard Newman - Highroller - Richard Newman/Jerry Donahue 
TTITLE11=Dave Kelly - Hard Times/Killing Floor - Dave Kelly/Danny Thompson 
TTITLE12=John B. Spencer - Forgotten The Blues - John B. Spencer/Jerry Donahue
TTITLE12=/Jon McLaughlin/Micky Moody/Danny Thompson/Bimbo Acock
TTITLE13=Steve Marriot - Hambone - Steve Marriot/Tim Hinkley/Greg Ridley/Joe B
TTITLE13=rown 
TTITLE14=Mickey Moody and Geoff Bradford - Perfect Strangers Rag - Micky Moody
TTITLE14=/Geoff Bradford 
TTITLE15=Rod Dawes -  Love That's All - Rod Dawes/Cliff Aungier/Nigel Portman-
TTITLE15=Smith 
TTITLE16=Cliff Aungier - Living With The Blues - Cliff Aungier/Jerry Donahue/G
TTITLE16=oeff Bradford/Gerry Conway/Nigel Portman-Smith/Julian Dawson
TTITLE17=John B. Spencer - One More Whiskey - John B. Spencer/Dave Kelly/Danny
TTITLE17=Thompson/Paul Jones 
TTITLE18=Geoff Bradford - A Little Security
EXTD=
EXTT0=
EXTT1=
EXTT2=
EXTT3=
EXTT4=
EXTT5=
EXTT6=
EXTT7=
EXTT8=
EXTT9=
EXTT10=
EXTT11=
EXTT12=
EXTT13=
EXTT14=
EXTT15=
EXTT16=
EXTT17=
EXTT18=
PLAYORDER=
